<svg id="图层_3" data-name="图层 3" xmlns="http://www.w3.org/2000/svg" viewBox="0 0 1102.25 1055.96"><defs><style>.cls-1{fill:#ededfa;}.cls-2{fill:#0c2340;}.cls-3,.cls-7{fill:#fff;}.cls-18,.cls-19,.cls-20,.cls-21,.cls-3{stroke:#216ef4;}.cls-14,.cls-15,.cls-17,.cls-18,.cls-19,.cls-20,.cls-21,.cls-3{stroke-miterlimit:10;}.cls-17,.cls-3{stroke-width:2.13px;}.cls-4{fill:#216ef4;}.cls-5{fill:#ecf3ff;}.cls-6{fill:#b3cdfa;}.cls-8{fill:#0b43a4;}.cls-9{fill:#ffb9a3;}.cls-10{fill:#ff9b8d;}.cls-11{fill:#0056ec;}.cls-12{fill:#1a406b;}.cls-13{fill:#16385c;}.cls-14,.cls-15,.cls-17,.cls-18,.cls-19,.cls-20,.cls-21{fill:none;}.cls-14{stroke:#16385c;stroke-width:3.19px;}.cls-15{stroke:#fff;stroke-width:1.06px;}.cls-16{fill:#cbd1f4;}.cls-17{stroke:#0b43a4;}.cls-18,.cls-19,.cls-20,.cls-21{stroke-width:5.31px;}.cls-19{stroke-dasharray:12.9 12.9;}.cls-20{stroke-dasharray:12.77 12.77;}.cls-21{stroke-dasharray:12.55 12.55;}</style></defs><path class="cls-1" d="M752,1133.18l-1.33,12.58v9l8.68,2.3s7.62-9.39,7.62-10.27,1.24-12.09,1.24-12.09Z" transform="translate(-357.8 -116.83)"/><path class="cls-2" d="M748.91,1145.93s8,16.73,18.43-3c12.22,2.18,37,10.59,39.56,13.07s-41.3,21.61-59.21,15.59C740.41,1169.32,741.47,1151.42,748.91,1145.93Z" transform="translate(-357.8 -116.83)"/><path class="cls-1" d="M652.09,1110.46l-2.73,13.33,2.73,9.39,10,1.55s5.32-13.24,5.14-13.77.71-10.5.71-10.5Z" transform="translate(-357.8 -116.83)"/><path class="cls-2" d="M649.36,1123.79s10,13,17.92-4.59c10.07-3.2,20.07-5.6,22.29-3.38,1.44,1.44-7.62,25-30.91,29.32S649.36,1123.79,649.36,1123.79Z" transform="translate(-357.8 -116.83)"/><polygon class="cls-3" points="96.03 158.01 96.03 808.45 862.85 853.09 862.85 35.26 96.03 158.01"/><polygon class="cls-3" points="97.62 158.01 97.62 808.45 864.44 853.09 864.44 35.26 97.62 158.01"/><polygon class="cls-3" points="96.03 158.01 96.03 206.27 862.85 92.55 862.85 35.26 96.03 158.01"/><polygon class="cls-4" points="96.03 206.27 96.03 808.45 167.23 812.6 167.23 195.71 96.03 206.27"/><polygon class="cls-5" points="176.76 219.03 176.76 348.7 382.96 328.5 382.96 190.33 176.76 219.03"/><polygon class="cls-5" points="176.76 355.43 176.76 790.49 382.96 798.29 382.96 337 176.76 355.43"/><polygon class="cls-6" points="204.04 401.13 204.04 471.28 393.24 459.94 393.24 385.54 204.04 401.13"/><path class="cls-5" d="M784.94,392.2s-5.32,198.4,0,192.2,374.13-28.52,374.13-28.52V346.5Z" transform="translate(-357.8 -116.83)"/><path class="cls-3" d="M759.89,368.8s-.36,185.6,0,192.2c8.67-.91,374.13-28.52,374.13-28.52V323.1Z" transform="translate(-357.8 -116.83)"/><polygon class="cls-6" points="573.21 269.51 573.21 320 715.64 307.24 715.64 252.51 573.21 269.51"/><polygon class="cls-6" points="573.21 337 573.21 385.54 673.12 380.58 673.12 328.5 573.21 337"/><ellipse class="cls-5" cx="492.08" cy="339.13" rx="73.32" ry="74.4"/><polygon class="cls-7" points="446.2 314.68 446.2 378.99 540.26 373.67 540.26 308.84 446.2 314.68"/><polyline class="cls-4" points="446.2 314.68 489.96 343.91 540.26 308.84"/><polygon class="cls-8" points="446.2 378.99 489.78 332.75 540.26 373.67 446.2 378.99"/><polygon class="cls-3" points="429.73 493.78 429.73 682.43 803.86 682.43 803.86 482.62 429.73 493.78"/><polygon class="cls-5" points="601.91 525.13 601.91 575.09 770.38 572.43 770.38 520.88 601.91 525.13"/><polygon class="cls-5" points="601.91 594.22 601.91 644.7 745.4 644.7 745.4 592.09 601.91 594.22"/><ellipse class="cls-5" cx="510.26" cy="594.51" rx="73.32" ry="74.4"/><polygon class="cls-7" points="464.38 570.06 464.38 634.37 558.45 629.05 558.45 564.22 464.38 570.06"/><polyline class="cls-4" points="464.38 570.06 508.14 599.29 558.45 564.22"/><polygon class="cls-8" points="464.38 634.37 507.96 588.13 558.45 629.05 464.38 634.37"/><polygon class="cls-4" points="837.88 651.13 837.88 782.79 938.8 780.12 938.8 678.09 907.94 648.07 837.88 651.13"/><polygon class="cls-6" points="907.94 648.07 907.94 678.37 938.8 678.09 907.94 648.07"/><polygon class="cls-7" points="854 702.28 854 711.73 926.28 708.95 926.28 698.95 854 702.28"/><polygon class="cls-7" points="854 726.45 854 735.9 926.28 733.12 926.28 723.11 854 726.45"/><polygon class="cls-7" points="854 749.11 854 758.56 892.09 757.17 892.09 747.16 854 749.11"/><polygon class="cls-4" points="18.31 1.82 18.31 80.33 78.48 78.74 78.48 17.9 60.08 0 18.31 1.82"/><polygon class="cls-6" points="60.08 0 60.08 18.07 78.48 17.9 60.08 0"/><polygon class="cls-7" points="27.92 32.33 27.92 37.96 71.03 36.3 71.03 30.34 27.92 32.33"/><polygon class="cls-7" points="27.92 46.73 27.92 52.37 71.03 50.71 71.03 44.75 27.92 46.73"/><polygon class="cls-7" points="27.92 60.25 27.92 65.89 50.63 65.06 50.63 59.09 27.92 60.25"/><path class="cls-9" d="M685.32,551.26s31.17,45,11.33,52.79c2.31,6.73,4.08,13.11,4.08,13.11h-28L667.6,597.4s-7.61-33.92-7.08-34.09S685.32,551.26,685.32,551.26Z" transform="translate(-357.8 -116.83)"/><path class="cls-2" d="M671.85,617.16s15.26-11.52,10-30.83c-1.51-2.12-11.26-3.36-9.13-13.1s10.23-5,10.23-5l2.52-19.84s6-7.27,4.26-19.67-12.94-11.69-15.42-9.74-3.54,11.34-3.54,11.34l-15.76.88-1.07,11s-31,16.82-27.81,24.44,20.73,9.92,20.73,9.92,5.52,16.29,14.7,24.62S671.85,617.16,671.85,617.16Z" transform="translate(-357.8 -116.83)"/><path class="cls-8" d="M628.1,652.59s-6.73,14.88-9.92,29-11.34,17.71-11.34,17.71l24.8,17.72,8.86-22.32Z" transform="translate(-357.8 -116.83)"/><path class="cls-10" d="M613.81,704.33l-13.7,21.24s-3.19,4.78,3.9,9.65,39.68,19,39.68,19l-3.19-35.43Z" transform="translate(-357.8 -116.83)"/><path class="cls-9" d="M770.88,595.19s50.66-30.11,70.86-55.27,46.76-61.64,48.18-60.58S883.19,501,883.19,501s3.89,27.64,1.06,29.41-12,5.31-14.53,2.83c-8.14,15.59-22,52.08-87.86,104.52C778.32,627.79,770.88,595.19,770.88,595.19Z" transform="translate(-357.8 -116.83)"/><path class="cls-11" d="M700.73,617.16a220.69,220.69,0,0,0,70.15-22c6,0,14.17,12.76,11,42.52-10.27,14.17-27.63,31.88-27.63,31.88s4.25,33.84-7.8,65.63-22.32,50.93-19.48,64c-19.49-2.48-105.94,7.8-105.94,7.8s5.67-20.55,8.15-28,8.15-36.85,2.48-62-8.89-49.55-3.54-64.48c6.73-18.78,35.07-35.43,43.75-35.43Z" transform="translate(-357.8 -116.83)"/><path class="cls-12" d="M621,807.06s8.45-22.68,39.48-21.26,52.64-3.54,66.46,13.46,66.6,107,77.94,162.27-29,172.89-29,172.89-30.47,2.83-35.08-8.5c4.61-18.43,14.53-48.9,15.24-66.61s2.12-73,7.79-85c-9.92-14-81.92-116.92-81.92-116.92S722.69,944.3,717,969.92s-37.56,134-42.52,139c-6.55,2.3-26.22,3.63-28.08-1.42s11.43-51,14.62-66.43S668,985.4,675.4,969.92a13.37,13.37,0,0,0-.53-9.69C673.27,954.44,623,831.68,621,826.36S621,807.06,621,807.06Z" transform="translate(-357.8 -116.83)"/><path class="cls-13" d="M681.87,857.36s-6.65-14.52-47.75-15.58c14.53,6,29.76,12.4,32.6,20.19s48.79,86.26,48.79,86.26a309.56,309.56,0,0,0-13.44-42.9C693.15,883,681.87,857.36,681.87,857.36Z" transform="translate(-357.8 -116.83)"/><path class="cls-14" d="M675.4,969.92s13.28,3.65,19.13-3.26" transform="translate(-357.8 -116.83)"/><path class="cls-14" d="M763.79,974.28s16.49.82,18.79-3.4" transform="translate(-357.8 -116.83)"/><path class="cls-15" d="M698.78,804.58s99.91,154.24,97.78,165.34-18.6,139.44-30.29,164.81" transform="translate(-357.8 -116.83)"/><polygon class="cls-5" points="549.83 164.82 549.83 223.81 844.48 182.89 844.48 120.77 549.83 164.82"/><path class="cls-3" d="M1054.31,308.42V468.18a8.26,8.26,0,0,0,9,8.23l246-21.91a8.27,8.27,0,0,0,7.54-8.23V271.07a8.27,8.27,0,0,0-9.51-8.17l-246,37.34A8.27,8.27,0,0,0,1054.31,308.42Z" transform="translate(-357.8 -116.83)"/><polygon class="cls-5" points="710.32 223.81 710.32 347.1 948.4 326.38 948.4 190.33 710.32 223.81"/><path class="cls-4" d="M1068.13,307.15s-.54,34,0,33.48,238.08-33.48,238.08-33.48V272.61Z" transform="translate(-357.8 -116.83)"/><polygon class="cls-7" points="729.26 287.07 729.26 308.92 752.32 307.05 752.32 285.32 729.26 287.07"/><polygon class="cls-7" points="722.69 228.1 722.69 249.96 745.75 248.08 745.75 226.36 722.69 228.1"/><polygon class="cls-7" points="783.63 221.37 783.63 243.22 806.69 241.35 806.69 219.63 783.63 221.37"/><polygon class="cls-7" points="787.88 251.7 787.88 273.56 810.94 271.68 810.94 249.96 787.88 251.7"/><polygon class="cls-16" points="756.03 254.67 756.03 276.53 779.09 274.65 779.09 252.93 756.03 254.67"/><polygon class="cls-7" points="816.24 308 816.24 329.86 839.3 327.98 839.3 306.26 816.24 308"/><polygon class="cls-7" points="754.59 314.03 754.59 335.88 777.65 334 777.65 312.28 754.59 314.03"/><polygon class="cls-7" points="848.18 304.52 848.18 326.38 871.25 324.5 871.25 302.78 848.18 304.52"/><polygon class="cls-16" points="848.18 275.27 848.18 297.12 871.25 295.25 871.25 273.52 848.18 275.27"/><polygon class="cls-7" points="876.8 239.9 876.8 261.76 899.87 259.88 899.87 238.16 876.8 239.9"/><polygon class="cls-7" points="908.69 268.6 908.69 290.45 931.75 288.58 931.75 266.86 908.69 268.6"/><polygon class="cls-7" points="845.98 213.76 845.98 235.61 869.04 233.74 869.04 212.02 845.98 213.76"/><polygon class="cls-7" points="910.11 206.32 910.11 228.17 933.17 226.3 933.17 204.58 910.11 206.32"/><polygon class="cls-8" points="829.25 258.59 829.25 287.46 859.72 284.98 859.72 256.28 829.25 258.59"/><line class="cls-17" x1="748.47" y1="312.28" x2="782.33" y2="337.8"/><line class="cls-17" x1="779.09" y1="310.7" x2="754.59" y2="335.88"/><polygon class="cls-4" points="740.79 240.46 740.79 269.33 771.26 266.86 771.26 238.16 740.79 240.46"/><path class="cls-5" d="M837.24,835.4c6.09-.29,320,4.54,320,4.54v58.35l-320-10.46Z" transform="translate(-357.8 -116.83)"/><path class="cls-18" d="M1222.24,636.93s2.26-.66,6.11-1.83" transform="translate(-357.8 -116.83)"/><path class="cls-19" d="M1240.62,631.16c35-11.89,105.4-41.26,76.22-79.9-38.27-50.66-65,26.15-32.75,41.27s72.07,30.65,96.52-41.27c23.29-68.54,13.78-193.56-66.74-219.34" transform="translate(-357.8 -116.83)"/><path class="cls-18" d="M1307.67,330.16q-3.06-.75-6.24-1.32" transform="translate(-357.8 -116.83)"/><path class="cls-18" d="M1234.61,972.61s2.32.41,6.31.91" transform="translate(-357.8 -116.83)"/><path class="cls-20" d="M1253.62,974.81c30.46,2.32,87.65,1.32,96.16-37.38,11.7-53.14-53.23-60.58-53.18-14.88s111.64,72.65,128.65-24.26c11.14-63.46-3.71-88-15.29-97.41" transform="translate(-357.8 -116.83)"/><path class="cls-18" d="M1404.65,797.37a20.92,20.92,0,0,0-6-2.17" transform="translate(-357.8 -116.83)"/><path class="cls-8" d="M1372,834.34l18.34-18.6h33.21a7.19,7.19,0,0,0,7.18-7.18V766.31h-51.55a7.17,7.17,0,0,0-7.18,7.18Z" transform="translate(-357.8 -116.83)"/><path class="cls-4" d="M1460.06,817.33l-18.34-18.6h-33.21a7.18,7.18,0,0,1-7.18-7.17V749.31h51.55a7.17,7.17,0,0,1,7.18,7.17Z" transform="translate(-357.8 -116.83)"/><path class="cls-18" d="M443,353.75a16,16,0,0,1-5.87-2.38" transform="translate(-357.8 -116.83)"/><path class="cls-21" d="M428.14,342.75c-4.77-6.54-9.51-16.94-12.22-33.45C409,267.13,368.09,267,361.71,281.12s12.23,45.05,40.66,26.95c26.53-16.88,40.33-53.64,18.32-106" transform="translate(-357.8 -116.83)"/><path class="cls-18" d="M418.15,196.35c-.87-1.9-1.79-3.81-2.76-5.75" transform="translate(-357.8 -116.83)"/><polygon class="cls-3" points="195.9 206.27 195.9 279.61 402.09 257.29 402.09 178.64 195.9 206.27"/><polygon class="cls-4" points="794.05 370.39 794.05 572.49 948.95 568.39 948.95 411.79 901.55 365.69 794.05 370.39"/><polygon class="cls-6" points="901.55 365.69 901.55 412.19 948.95 411.79 901.55 365.69"/><polygon class="cls-7" points="818.85 448.89 818.85 463.39 929.75 459.19 929.75 443.79 818.85 448.89"/><polygon class="cls-7" points="818.85 485.99 818.85 500.49 929.75 496.29 929.75 480.89 818.85 485.99"/><polygon class="cls-7" points="818.85 520.79 818.85 535.29 877.25 533.19 877.25 517.79 818.85 520.79"/></svg>